<svg xmlns="http://www.w3.org/2000/svg" width="47" height="48" viewBox="0 0 47 48">
    <g fill-rule="evenodd">
        <path d="M23.5.59C10.521.59 0 11.111 0 24.09s10.521 23.5 23.5 23.5S47 37.069 47 24.09 36.479.59 23.5.59m0 4.476c10.49 0 19.024 8.534 19.024 19.024S33.99 43.114 23.5 43.114 4.476 34.58 4.476 24.09 13.01 5.066 23.5 5.066"/>
        <path d="M23.5 26.328a2.238 2.238 0 0 1-2.238-2.238v-9.4a2.238 2.238 0 0 1 4.476 0v9.4a2.238 2.238 0 0 1-2.238 2.238M23.5 35.728c-.588 0-1.164-.24-1.584-.655a2.277 2.277 0 0 1-.654-1.583c0-.588.24-1.164.654-1.584.42-.414.996-.654 1.584-.654.588 0 1.164.24 1.583.654.414.42.655.996.655 1.584 0 .587-.24 1.164-.655 1.583-.42.414-.995.655-1.583.655"/>
    </g>
</svg>
